# xmcd CD database file
#
# Track frame offsets:
#	150
#	13980
#	26237
#	38127
#	49217
#	62547
#	74250
#	87370
#	100125
#	113375
#	126562
#	137270
#	149535
#	163200
#	176992
#	188340
#	200205
#	211990
#	225597
#	238622
#	250727
#	264122
#	278745
#	292545
#	304835
#	318932
#
# Disc length: 4443 seconds
#
# Revision: 4
# Processed by: cddbd v1.5.2PL0 Copyright (c) Steve Scherf et al.
# Submitted via: CDex 1.70beta2
#
DISCID=7411591a
DTITLE=Les Paul - The Trio's Complete Decca Recordings Plus (1936-47) - Decca, MCA - D1
DYEAR=1936
DGENRE=Jazz
TTITLE0=New Dupree Blues (with Georgia White)
TTITLE1=Daddy Let Me Lay it on You (with Georgia White)
TTITLE2=I Just Want Your Stingaree (with Georgia White)
TTITLE3=Black Rider (with Georgia White)
TTITLE4=I'll Keep Sittin' on it (If I Can't Sell it) (with Georgia White)
TTITLE5=Trouble in Mind (with Georgia White)
TTITLE6=Just Because (Rhubarb Red)
TTITLE7=Answer to Just Because (Rhubarb Red)
TTITLE8=Deep Elem Blues #2 (Rhubarb Red)
TTITLE9=Deep Elem Blues (Rhubarb Red)
TTITLE10=Cindy (with Terry Shand and His Orchestra)
TTITLE11=The Filipino Hombre (with Terry Shand and His Orchestra)
TTITLE12=Dream Dust (Les Paul and His Trio)
TTITLE13=Begin the Beguine (Les Paul and His Trio) (previously unreleased)
TTITLE14=Dark Eyes (Les Paul and His Trio) (previously unreleased)
TTITLE15=Blues Skies (Les Paul and His Trio) (previously unreleased)
TTITLE16=Blues Skies (Les Paul and His Trio)
TTITLE17=Begin the Beguine (Les Paul and His Trio)
TTITLE18=Dream Dust (Les Paul and His Trio)
TTITLE19=Dark Eyes (Les Paul and His Trio)
TTITLE20=It's Been a Long, Long Time (with Bing Crosby)
TTITLE21=Whose Dream Are You? (with Bing Crosby)
TTITLE22=Hawaiian Paradise (Les Paul and His Trio)
TTITLE23=My Isle of Gloden Dreams (Les Paul and His Trio)
TTITLE24=Spellbound (with Helen Forrest)
TTITLE25=Everybody Knew But Me (with Helen Forrest)
EXTD=1997c YEAR: 1936
EXTT0=Georgia White (1-6)
EXTT1=
EXTT2=
EXTT3=
EXTT4=
EXTT5=
EXTT6=Rhubarb Red (7-10)
EXTT7=
EXTT8=
EXTT9=
EXTT10=Terry Shand Orch (11-12)
EXTT11=
EXTT12=Les Paul and His Trio (13-20)
EXTT13=
EXTT14=
EXTT15=
EXTT16=
EXTT17=
EXTT18=
EXTT19=
EXTT20=Bing Crosby (21-22)
EXTT21=
EXTT22=Helen Forrest (23-24)
EXTT23=
EXTT24=
EXTT25=
PLAYORDER=
